<mxfile host="app.diagrams.net" modified="2024-06-10T00:55:58.915Z" agent="Mozilla/5.0 (Windows NT 10.0; Win64; x64) AppleWebKit/537.36 (KHTML, like Gecko) Chrome/123.0.0.0 Safari/537.36 OPR/109.0.0.0" etag="2H8NytiI90tX3cJXVn90" version="24.5.2" type="device">
  <diagram name="Page-1" id="uzKK6A9NJA-g0JJVe5AI">
    <mxGraphModel dx="1393" dy="766" grid="1" gridSize="10" guides="1" tooltips="1" connect="1" arrows="1" fold="1" page="1" pageScale="1" pageWidth="850" pageHeight="1100" math="0" shadow="0">
      <root>
        <mxCell id="0" />
        <mxCell id="1" parent="0" />
        <mxCell id="mwOmAZCRtxpQRL2wNHXB-44" style="edgeStyle=orthogonalEdgeStyle;rounded=0;orthogonalLoop=1;jettySize=auto;html=1;" edge="1" parent="1" source="mwOmAZCRtxpQRL2wNHXB-47" target="mwOmAZCRtxpQRL2wNHXB-54">
          <mxGeometry relative="1" as="geometry" />
        </mxCell>
        <mxCell id="mwOmAZCRtxpQRL2wNHXB-45" style="edgeStyle=orthogonalEdgeStyle;rounded=0;orthogonalLoop=1;jettySize=auto;html=1;" edge="1" parent="1" source="mwOmAZCRtxpQRL2wNHXB-47" target="mwOmAZCRtxpQRL2wNHXB-62">
          <mxGeometry relative="1" as="geometry" />
        </mxCell>
        <mxCell id="mwOmAZCRtxpQRL2wNHXB-46" style="edgeStyle=orthogonalEdgeStyle;rounded=0;orthogonalLoop=1;jettySize=auto;html=1;" edge="1" parent="1" source="mwOmAZCRtxpQRL2wNHXB-47" target="mwOmAZCRtxpQRL2wNHXB-70">
          <mxGeometry relative="1" as="geometry" />
        </mxCell>
        <mxCell id="mwOmAZCRtxpQRL2wNHXB-47" value="Autorizācijas logs" style="rounded=0;whiteSpace=wrap;html=1;" vertex="1" parent="1">
          <mxGeometry x="364" y="90" width="120" height="60" as="geometry" />
        </mxCell>
        <mxCell id="mwOmAZCRtxpQRL2wNHXB-48" style="edgeStyle=orthogonalEdgeStyle;rounded=0;orthogonalLoop=1;jettySize=auto;html=1;entryX=0.5;entryY=1;entryDx=0;entryDy=0;" edge="1" parent="1" source="mwOmAZCRtxpQRL2wNHXB-54" target="mwOmAZCRtxpQRL2wNHXB-47">
          <mxGeometry relative="1" as="geometry" />
        </mxCell>
        <mxCell id="mwOmAZCRtxpQRL2wNHXB-49" style="edgeStyle=orthogonalEdgeStyle;rounded=0;orthogonalLoop=1;jettySize=auto;html=1;" edge="1" parent="1" source="mwOmAZCRtxpQRL2wNHXB-54" target="mwOmAZCRtxpQRL2wNHXB-68">
          <mxGeometry relative="1" as="geometry" />
        </mxCell>
        <mxCell id="mwOmAZCRtxpQRL2wNHXB-50" style="edgeStyle=orthogonalEdgeStyle;rounded=0;orthogonalLoop=1;jettySize=auto;html=1;" edge="1" parent="1" source="mwOmAZCRtxpQRL2wNHXB-54" target="mwOmAZCRtxpQRL2wNHXB-60">
          <mxGeometry relative="1" as="geometry" />
        </mxCell>
        <mxCell id="mwOmAZCRtxpQRL2wNHXB-51" style="edgeStyle=orthogonalEdgeStyle;rounded=0;orthogonalLoop=1;jettySize=auto;html=1;" edge="1" parent="1" source="mwOmAZCRtxpQRL2wNHXB-54" target="mwOmAZCRtxpQRL2wNHXB-86">
          <mxGeometry relative="1" as="geometry" />
        </mxCell>
        <mxCell id="mwOmAZCRtxpQRL2wNHXB-52" style="edgeStyle=orthogonalEdgeStyle;rounded=0;orthogonalLoop=1;jettySize=auto;html=1;" edge="1" parent="1" source="mwOmAZCRtxpQRL2wNHXB-54" target="mwOmAZCRtxpQRL2wNHXB-75">
          <mxGeometry relative="1" as="geometry">
            <Array as="points">
              <mxPoint x="424" y="420" />
              <mxPoint x="634" y="420" />
            </Array>
          </mxGeometry>
        </mxCell>
        <mxCell id="mwOmAZCRtxpQRL2wNHXB-53" style="edgeStyle=orthogonalEdgeStyle;rounded=0;orthogonalLoop=1;jettySize=auto;html=1;" edge="1" parent="1" source="mwOmAZCRtxpQRL2wNHXB-54" target="mwOmAZCRtxpQRL2wNHXB-80">
          <mxGeometry relative="1" as="geometry">
            <Array as="points">
              <mxPoint x="424" y="420" />
              <mxPoint x="214" y="420" />
            </Array>
          </mxGeometry>
        </mxCell>
        <mxCell id="mwOmAZCRtxpQRL2wNHXB-54" value="Sākumlapas logs" style="rounded=0;whiteSpace=wrap;html=1;" vertex="1" parent="1">
          <mxGeometry x="364" y="330" width="120" height="60" as="geometry" />
        </mxCell>
        <mxCell id="mwOmAZCRtxpQRL2wNHXB-55" style="edgeStyle=orthogonalEdgeStyle;rounded=0;orthogonalLoop=1;jettySize=auto;html=1;" edge="1" parent="1" source="mwOmAZCRtxpQRL2wNHXB-60" target="mwOmAZCRtxpQRL2wNHXB-54">
          <mxGeometry relative="1" as="geometry" />
        </mxCell>
        <mxCell id="mwOmAZCRtxpQRL2wNHXB-56" style="edgeStyle=orthogonalEdgeStyle;rounded=0;orthogonalLoop=1;jettySize=auto;html=1;entryX=0.5;entryY=0;entryDx=0;entryDy=0;" edge="1" parent="1" source="mwOmAZCRtxpQRL2wNHXB-60" target="mwOmAZCRtxpQRL2wNHXB-68">
          <mxGeometry relative="1" as="geometry">
            <Array as="points">
              <mxPoint x="214" y="300" />
              <mxPoint x="634" y="300" />
            </Array>
          </mxGeometry>
        </mxCell>
        <mxCell id="mwOmAZCRtxpQRL2wNHXB-57" style="edgeStyle=orthogonalEdgeStyle;rounded=0;orthogonalLoop=1;jettySize=auto;html=1;entryX=0;entryY=0.5;entryDx=0;entryDy=0;" edge="1" parent="1" source="mwOmAZCRtxpQRL2wNHXB-60" target="mwOmAZCRtxpQRL2wNHXB-80">
          <mxGeometry relative="1" as="geometry">
            <Array as="points">
              <mxPoint x="134" y="360" />
              <mxPoint x="134" y="480" />
            </Array>
          </mxGeometry>
        </mxCell>
        <mxCell id="mwOmAZCRtxpQRL2wNHXB-58" style="edgeStyle=orthogonalEdgeStyle;rounded=0;orthogonalLoop=1;jettySize=auto;html=1;entryX=0.5;entryY=1;entryDx=0;entryDy=0;" edge="1" parent="1" source="mwOmAZCRtxpQRL2wNHXB-60" target="mwOmAZCRtxpQRL2wNHXB-86">
          <mxGeometry relative="1" as="geometry">
            <Array as="points">
              <mxPoint x="214" y="400" />
              <mxPoint x="300" y="400" />
              <mxPoint x="300" y="530" />
              <mxPoint x="424" y="530" />
            </Array>
          </mxGeometry>
        </mxCell>
        <mxCell id="mwOmAZCRtxpQRL2wNHXB-59" style="edgeStyle=orthogonalEdgeStyle;rounded=0;orthogonalLoop=1;jettySize=auto;html=1;entryX=0;entryY=0.5;entryDx=0;entryDy=0;" edge="1" parent="1" source="mwOmAZCRtxpQRL2wNHXB-60" target="mwOmAZCRtxpQRL2wNHXB-75">
          <mxGeometry relative="1" as="geometry">
            <Array as="points">
              <mxPoint x="290" y="370" />
              <mxPoint x="290" y="400" />
              <mxPoint x="510" y="400" />
              <mxPoint x="510" y="480" />
            </Array>
          </mxGeometry>
        </mxCell>
        <mxCell id="mwOmAZCRtxpQRL2wNHXB-60" value="Iestatījumu logs" style="rounded=0;whiteSpace=wrap;html=1;" vertex="1" parent="1">
          <mxGeometry x="154" y="330" width="120" height="60" as="geometry" />
        </mxCell>
        <mxCell id="mwOmAZCRtxpQRL2wNHXB-61" style="edgeStyle=orthogonalEdgeStyle;rounded=0;orthogonalLoop=1;jettySize=auto;html=1;entryX=1;entryY=0.5;entryDx=0;entryDy=0;" edge="1" parent="1" source="mwOmAZCRtxpQRL2wNHXB-62" target="mwOmAZCRtxpQRL2wNHXB-47">
          <mxGeometry relative="1" as="geometry">
            <Array as="points">
              <mxPoint x="584" y="120" />
            </Array>
          </mxGeometry>
        </mxCell>
        <mxCell id="mwOmAZCRtxpQRL2wNHXB-62" value="Reģistrācijas logs" style="rounded=0;whiteSpace=wrap;html=1;" vertex="1" parent="1">
          <mxGeometry x="524" y="190" width="120" height="60" as="geometry" />
        </mxCell>
        <mxCell id="mwOmAZCRtxpQRL2wNHXB-63" style="edgeStyle=orthogonalEdgeStyle;rounded=0;orthogonalLoop=1;jettySize=auto;html=1;" edge="1" parent="1" source="mwOmAZCRtxpQRL2wNHXB-68" target="mwOmAZCRtxpQRL2wNHXB-54">
          <mxGeometry relative="1" as="geometry" />
        </mxCell>
        <mxCell id="mwOmAZCRtxpQRL2wNHXB-64" style="edgeStyle=orthogonalEdgeStyle;rounded=0;orthogonalLoop=1;jettySize=auto;html=1;entryX=0.5;entryY=0;entryDx=0;entryDy=0;" edge="1" parent="1" source="mwOmAZCRtxpQRL2wNHXB-68" target="mwOmAZCRtxpQRL2wNHXB-60">
          <mxGeometry relative="1" as="geometry">
            <Array as="points">
              <mxPoint x="634" y="300" />
              <mxPoint x="214" y="300" />
            </Array>
          </mxGeometry>
        </mxCell>
        <mxCell id="mwOmAZCRtxpQRL2wNHXB-65" style="edgeStyle=orthogonalEdgeStyle;rounded=0;orthogonalLoop=1;jettySize=auto;html=1;entryX=1;entryY=0.5;entryDx=0;entryDy=0;" edge="1" parent="1" source="mwOmAZCRtxpQRL2wNHXB-68" target="mwOmAZCRtxpQRL2wNHXB-75">
          <mxGeometry relative="1" as="geometry">
            <Array as="points">
              <mxPoint x="714" y="360" />
              <mxPoint x="714" y="480" />
            </Array>
          </mxGeometry>
        </mxCell>
        <mxCell id="mwOmAZCRtxpQRL2wNHXB-66" style="edgeStyle=orthogonalEdgeStyle;rounded=0;orthogonalLoop=1;jettySize=auto;html=1;entryX=0.5;entryY=1;entryDx=0;entryDy=0;" edge="1" parent="1" source="mwOmAZCRtxpQRL2wNHXB-68" target="mwOmAZCRtxpQRL2wNHXB-86">
          <mxGeometry relative="1" as="geometry">
            <Array as="points">
              <mxPoint x="634" y="400" />
              <mxPoint x="529" y="400" />
              <mxPoint x="529" y="530" />
              <mxPoint x="424" y="530" />
            </Array>
          </mxGeometry>
        </mxCell>
        <mxCell id="mwOmAZCRtxpQRL2wNHXB-67" style="edgeStyle=orthogonalEdgeStyle;rounded=0;orthogonalLoop=1;jettySize=auto;html=1;entryX=1;entryY=0.5;entryDx=0;entryDy=0;" edge="1" parent="1" source="mwOmAZCRtxpQRL2wNHXB-68" target="mwOmAZCRtxpQRL2wNHXB-80">
          <mxGeometry relative="1" as="geometry">
            <Array as="points">
              <mxPoint x="550" y="360" />
              <mxPoint x="550" y="410" />
              <mxPoint x="320" y="410" />
              <mxPoint x="320" y="480" />
            </Array>
          </mxGeometry>
        </mxCell>
        <mxCell id="mwOmAZCRtxpQRL2wNHXB-68" value="Profils" style="rounded=0;whiteSpace=wrap;html=1;" vertex="1" parent="1">
          <mxGeometry x="574" y="330" width="120" height="60" as="geometry" />
        </mxCell>
        <mxCell id="mwOmAZCRtxpQRL2wNHXB-69" style="edgeStyle=orthogonalEdgeStyle;rounded=0;orthogonalLoop=1;jettySize=auto;html=1;entryX=0;entryY=0.5;entryDx=0;entryDy=0;" edge="1" parent="1" source="mwOmAZCRtxpQRL2wNHXB-70" target="mwOmAZCRtxpQRL2wNHXB-47">
          <mxGeometry relative="1" as="geometry">
            <Array as="points">
              <mxPoint x="260" y="120" />
            </Array>
          </mxGeometry>
        </mxCell>
        <mxCell id="mwOmAZCRtxpQRL2wNHXB-70" value="Autjaunot kontu logs" style="rounded=0;whiteSpace=wrap;html=1;" vertex="1" parent="1">
          <mxGeometry x="200" y="190" width="120" height="60" as="geometry" />
        </mxCell>
        <mxCell id="mwOmAZCRtxpQRL2wNHXB-71" style="edgeStyle=orthogonalEdgeStyle;rounded=0;orthogonalLoop=1;jettySize=auto;html=1;" edge="1" parent="1" source="mwOmAZCRtxpQRL2wNHXB-75" target="mwOmAZCRtxpQRL2wNHXB-54">
          <mxGeometry relative="1" as="geometry">
            <Array as="points">
              <mxPoint x="634" y="420" />
              <mxPoint x="424" y="420" />
            </Array>
          </mxGeometry>
        </mxCell>
        <mxCell id="mwOmAZCRtxpQRL2wNHXB-72" style="edgeStyle=orthogonalEdgeStyle;rounded=0;orthogonalLoop=1;jettySize=auto;html=1;entryX=1;entryY=0.5;entryDx=0;entryDy=0;" edge="1" parent="1" source="mwOmAZCRtxpQRL2wNHXB-75" target="mwOmAZCRtxpQRL2wNHXB-68">
          <mxGeometry relative="1" as="geometry">
            <Array as="points">
              <mxPoint x="714" y="480" />
              <mxPoint x="714" y="360" />
            </Array>
          </mxGeometry>
        </mxCell>
        <mxCell id="mwOmAZCRtxpQRL2wNHXB-73" style="edgeStyle=orthogonalEdgeStyle;rounded=0;orthogonalLoop=1;jettySize=auto;html=1;entryX=0.5;entryY=1;entryDx=0;entryDy=0;" edge="1" parent="1" source="mwOmAZCRtxpQRL2wNHXB-75" target="mwOmAZCRtxpQRL2wNHXB-86">
          <mxGeometry relative="1" as="geometry">
            <Array as="points">
              <mxPoint x="634" y="530" />
              <mxPoint x="424" y="530" />
            </Array>
          </mxGeometry>
        </mxCell>
        <mxCell id="mwOmAZCRtxpQRL2wNHXB-74" style="edgeStyle=orthogonalEdgeStyle;rounded=0;orthogonalLoop=1;jettySize=auto;html=1;entryX=1;entryY=0.75;entryDx=0;entryDy=0;" edge="1" parent="1" source="mwOmAZCRtxpQRL2wNHXB-75" target="mwOmAZCRtxpQRL2wNHXB-60">
          <mxGeometry relative="1" as="geometry">
            <Array as="points">
              <mxPoint x="510" y="480" />
              <mxPoint x="510" y="400" />
              <mxPoint x="290" y="400" />
              <mxPoint x="290" y="375" />
            </Array>
          </mxGeometry>
        </mxCell>
        <mxCell id="mwOmAZCRtxpQRL2wNHXB-75" value="Paziņojumi" style="rounded=0;whiteSpace=wrap;html=1;" vertex="1" parent="1">
          <mxGeometry x="574" y="450" width="120" height="60" as="geometry" />
        </mxCell>
        <mxCell id="mwOmAZCRtxpQRL2wNHXB-76" style="edgeStyle=orthogonalEdgeStyle;rounded=0;orthogonalLoop=1;jettySize=auto;html=1;" edge="1" parent="1" source="mwOmAZCRtxpQRL2wNHXB-80" target="mwOmAZCRtxpQRL2wNHXB-54">
          <mxGeometry relative="1" as="geometry">
            <Array as="points">
              <mxPoint x="214" y="420" />
              <mxPoint x="424" y="420" />
            </Array>
          </mxGeometry>
        </mxCell>
        <mxCell id="mwOmAZCRtxpQRL2wNHXB-77" style="edgeStyle=orthogonalEdgeStyle;rounded=0;orthogonalLoop=1;jettySize=auto;html=1;entryX=0;entryY=0.5;entryDx=0;entryDy=0;" edge="1" parent="1" source="mwOmAZCRtxpQRL2wNHXB-80" target="mwOmAZCRtxpQRL2wNHXB-60">
          <mxGeometry relative="1" as="geometry">
            <Array as="points">
              <mxPoint x="134" y="480" />
              <mxPoint x="134" y="360" />
            </Array>
          </mxGeometry>
        </mxCell>
        <mxCell id="mwOmAZCRtxpQRL2wNHXB-78" style="edgeStyle=orthogonalEdgeStyle;rounded=0;orthogonalLoop=1;jettySize=auto;html=1;entryX=0.5;entryY=1;entryDx=0;entryDy=0;" edge="1" parent="1" source="mwOmAZCRtxpQRL2wNHXB-80" target="mwOmAZCRtxpQRL2wNHXB-86">
          <mxGeometry relative="1" as="geometry">
            <Array as="points">
              <mxPoint x="214" y="530" />
              <mxPoint x="424" y="530" />
            </Array>
          </mxGeometry>
        </mxCell>
        <mxCell id="mwOmAZCRtxpQRL2wNHXB-79" style="edgeStyle=orthogonalEdgeStyle;rounded=0;orthogonalLoop=1;jettySize=auto;html=1;entryX=0;entryY=0.5;entryDx=0;entryDy=0;" edge="1" parent="1" source="mwOmAZCRtxpQRL2wNHXB-80" target="mwOmAZCRtxpQRL2wNHXB-68">
          <mxGeometry relative="1" as="geometry">
            <Array as="points">
              <mxPoint x="214" y="410" />
              <mxPoint x="520" y="410" />
              <mxPoint x="520" y="380" />
              <mxPoint x="560" y="380" />
              <mxPoint x="560" y="360" />
            </Array>
          </mxGeometry>
        </mxCell>
        <mxCell id="mwOmAZCRtxpQRL2wNHXB-80" value="Čats" style="rounded=0;whiteSpace=wrap;html=1;" vertex="1" parent="1">
          <mxGeometry x="154" y="450" width="120" height="60" as="geometry" />
        </mxCell>
        <mxCell id="mwOmAZCRtxpQRL2wNHXB-81" style="edgeStyle=orthogonalEdgeStyle;rounded=0;orthogonalLoop=1;jettySize=auto;html=1;entryX=0.5;entryY=1;entryDx=0;entryDy=0;" edge="1" parent="1" source="mwOmAZCRtxpQRL2wNHXB-86" target="mwOmAZCRtxpQRL2wNHXB-54">
          <mxGeometry relative="1" as="geometry" />
        </mxCell>
        <mxCell id="mwOmAZCRtxpQRL2wNHXB-82" style="edgeStyle=orthogonalEdgeStyle;rounded=0;orthogonalLoop=1;jettySize=auto;html=1;" edge="1" parent="1" source="mwOmAZCRtxpQRL2wNHXB-86" target="mwOmAZCRtxpQRL2wNHXB-60">
          <mxGeometry relative="1" as="geometry">
            <Array as="points">
              <mxPoint x="424" y="530" />
              <mxPoint x="300" y="530" />
              <mxPoint x="300" y="400" />
              <mxPoint x="214" y="400" />
            </Array>
          </mxGeometry>
        </mxCell>
        <mxCell id="mwOmAZCRtxpQRL2wNHXB-83" style="edgeStyle=orthogonalEdgeStyle;rounded=0;orthogonalLoop=1;jettySize=auto;html=1;" edge="1" parent="1" source="mwOmAZCRtxpQRL2wNHXB-86" target="mwOmAZCRtxpQRL2wNHXB-68">
          <mxGeometry relative="1" as="geometry">
            <Array as="points">
              <mxPoint x="424" y="530" />
              <mxPoint x="530" y="530" />
              <mxPoint x="530" y="400" />
              <mxPoint x="634" y="400" />
            </Array>
          </mxGeometry>
        </mxCell>
        <mxCell id="mwOmAZCRtxpQRL2wNHXB-84" style="edgeStyle=orthogonalEdgeStyle;rounded=0;orthogonalLoop=1;jettySize=auto;html=1;entryX=0.5;entryY=1;entryDx=0;entryDy=0;" edge="1" parent="1" source="mwOmAZCRtxpQRL2wNHXB-86" target="mwOmAZCRtxpQRL2wNHXB-75">
          <mxGeometry relative="1" as="geometry">
            <Array as="points">
              <mxPoint x="424" y="530" />
              <mxPoint x="634" y="530" />
            </Array>
          </mxGeometry>
        </mxCell>
        <mxCell id="mwOmAZCRtxpQRL2wNHXB-85" style="edgeStyle=orthogonalEdgeStyle;rounded=0;orthogonalLoop=1;jettySize=auto;html=1;entryX=0.5;entryY=1;entryDx=0;entryDy=0;" edge="1" parent="1" source="mwOmAZCRtxpQRL2wNHXB-86" target="mwOmAZCRtxpQRL2wNHXB-80">
          <mxGeometry relative="1" as="geometry">
            <Array as="points">
              <mxPoint x="424" y="530" />
              <mxPoint x="214" y="530" />
            </Array>
          </mxGeometry>
        </mxCell>
        <mxCell id="mwOmAZCRtxpQRL2wNHXB-86" value="Spēles" style="rounded=0;whiteSpace=wrap;html=1;" vertex="1" parent="1">
          <mxGeometry x="364" y="450" width="120" height="60" as="geometry" />
        </mxCell>
      </root>
    </mxGraphModel>
  </diagram>
</mxfile>
